<?xml version="1.0" encoding="UTF-8" standalone="no"?>
<!-- Created with Inkscape (http://www.inkscape.org/) -->

<svg
   width="73.515411mm"
   height="21.487581mm"
   viewBox="0 0 73.515411 21.487582"
   version="1.1"
   id="svg7499"
   inkscape:version="1.2.2 (732a01da63, 2022-12-09)"
   sodipodi:docname="logo-inverted.svg"
   xmlns:inkscape="http://www.inkscape.org/namespaces/inkscape"
   xmlns:sodipodi="http://sodipodi.sourceforge.net/DTD/sodipodi-0.dtd"
   xmlns="http://www.w3.org/2000/svg"
   xmlns:svg="http://www.w3.org/2000/svg">
  <sodipodi:namedview
     id="namedview7501"
     pagecolor="#ffffff"
     bordercolor="#000000"
     borderopacity="0.25"
     inkscape:showpageshadow="2"
     inkscape:pageopacity="0.0"
     inkscape:pagecheckerboard="0"
     inkscape:deskcolor="#d1d1d1"
     inkscape:document-units="mm"
     showgrid="false"
     inkscape:zoom="1.9240437"
     inkscape:cx="32.48367"
     inkscape:cy="110.96422"
     inkscape:window-width="1920"
     inkscape:window-height="1111"
     inkscape:window-x="-9"
     inkscape:window-y="-9"
     inkscape:window-maximized="1"
     inkscape:current-layer="layer1" />
  <defs
     id="defs7496" />
  <g
     inkscape:label="Ebene 1"
     inkscape:groupmode="layer"
     id="layer1">
    <g
       id="g12628"
       transform="matrix(0.13128716,0,0,0.13128716,-3.4170138,-4.2985925)"
       style="fill:currentColor;fill-opacity:1;stroke-width:2.68707">
      <g
         fill="currentColor"
         fill-opacity="1"
         id="g12587"
         style="fill:currentColor;fill-opacity:1;stroke-width:2.68707">
        <g
           id="use12569"
           transform="translate(33.791401,185.5977)"
           style="fill:currentColor;fill-opacity:1;stroke-width:2.68707">
          <path
             d="m 39.25,-102.45313 h -5.734375 c -2.5,0 -3.828125,-1.34375 -3.828125,-3.82812 V -137.875 c 0,-2.5 -1.34375,-3.82812 -3.828125,-3.82812 H 6.703125 c -2.484375,0 -3.828125,1.32812 -3.828125,3.82812 V -3.828125 C 2.875,-1.34375 4.21875,0 6.703125,0 h 19.15625 C 28.34375,0 29.6875,-1.34375 29.6875,-3.828125 v -66.0625 c 0,-2.5 1.328125,-3.84375 3.828125,-3.84375 H 39.25 c 2.5,0 3.84375,1.34375 3.84375,3.84375 v 66.0625 C 43.09375,-1.34375 44.421875,0 46.921875,0 H 66.0625 c 2.5,0 3.828125,-1.34375 3.828125,-3.828125 V -137.875 c 0,-2.5 -1.328125,-3.82812 -3.828125,-3.82812 H 46.921875 c -2.5,0 -3.828125,1.32812 -3.828125,3.82812 v 31.59375 c 0,2.48437 -1.34375,3.82812 -3.84375,3.82812 z m 0,0"
             id="path12846"
             style="fill:currentColor;fill-opacity:1;stroke-width:2.68707" />
        </g>
        <g
           id="use12571"
           transform="translate(106.5614,185.5977)"
           style="fill:currentColor;fill-opacity:1;stroke-width:2.68707">
          <path
             d="M 6.703125,-74.6875 H 34.46875 c 2.484375,0 3.828125,1.34375 3.828125,3.828125 v 5.75 c 0,2.484375 -1.34375,3.828125 -3.828125,3.828125 H 6.703125 c -2.484375,0 -3.828125,1.34375 -3.828125,3.828125 v 53.625 C 2.875,-1.34375 4.21875,0 6.703125,0 h 53.625 C 62.8125,0 64.15625,-1.34375 64.15625,-3.828125 v -93.84375 c 0,-2.484375 -1.34375,-3.828125 -3.828125,-3.828125 h -53.625 c -2.484375,0 -3.828125,1.34375 -3.828125,3.828125 v 19.15625 c 0,2.484375 1.34375,3.828125 3.828125,3.828125 z m 26.8125,67.984375 c -13.40625,0 -23.9375,-10.53125 -23.9375,-23.9375 0,-13.40625 10.53125,-23.9375 23.9375,-23.9375 13.203125,0 23.9375,10.71875 23.9375,23.9375 0,13.21875 -10.734375,23.9375 -23.9375,23.9375 z m 0,0"
             id="path12842"
             style="fill:currentColor;fill-opacity:1;stroke-width:2.68707" />
        </g>
        <g
           id="use12573"
           transform="translate(173.5864,185.5977)"
           style="fill:currentColor;fill-opacity:1;stroke-width:2.68707">
          <path
             d="M 31.015625,-3.828125 V -137.875 c 0,-2.5 -1.328125,-3.82812 -3.828125,-3.82812 H 6.703125 c -2.484375,0 -3.828125,1.32812 -3.828125,3.82812 V -3.828125 C 2.875,-1.34375 4.21875,0 6.703125,0 H 27.1875 c 2.5,0 3.828125,-1.34375 3.828125,-3.828125 z m 0,0"
             id="path12850"
             style="fill:currentColor;fill-opacity:1;stroke-width:2.68707" />
        </g>
        <g
           id="use12575"
           transform="translate(207.4819,185.5977)"
           style="fill:currentColor;fill-opacity:1;stroke-width:2.68707">
          <path
             d="M 31.015625,-3.828125 V -137.875 c 0,-2.5 -1.328125,-3.82812 -3.828125,-3.82812 H 6.703125 c -2.484375,0 -3.828125,1.32812 -3.828125,3.82812 V -3.828125 C 2.875,-1.34375 4.21875,0 6.703125,0 H 27.1875 c 2.5,0 3.828125,-1.34375 3.828125,-3.828125 z m 0,0"
             id="path12854"
             style="fill:currentColor;fill-opacity:1;stroke-width:2.68707" />
        </g>
        <g
           id="use12577"
           transform="translate(241.3774,185.5977)"
           style="fill:currentColor;fill-opacity:1;stroke-width:2.68707">
          <path
             d="m 63.96875,-3.828125 v -93.84375 C 63.96875,-100.15625 62.625,-101.5 60.125,-101.5 H 6.703125 c -2.484375,0 -3.828125,1.34375 -3.828125,3.828125 v 93.84375 C 2.875,-1.34375 4.21875,0 6.703125,0 H 60.125 c 2.5,0 3.84375,-1.34375 3.84375,-3.828125 z M 33.515625,-26.8125 c -13.40625,0 -23.9375,-10.53125 -23.9375,-23.9375 0,-13.40625 10.53125,-23.9375 23.9375,-23.9375 13.203125,0 23.9375,10.71875 23.9375,23.9375 0,13.21875 -10.734375,23.9375 -23.9375,23.9375 z m 0,0"
             id="path12866"
             style="fill:currentColor;fill-opacity:1;stroke-width:2.68707" />
        </g>
        <g
           id="use12579"
           transform="translate(308.21091,185.5977)"
           style="fill:currentColor;fill-opacity:1;stroke-width:2.68707">
          <path
             d="m 54.578125,-3.828125 v -19.15625 c 0,-2.484375 -1.34375,-3.828125 -3.828125,-3.828125 H 33.515625 c -2.5,0 -3.828125,-1.34375 -3.828125,-3.828125 v -40.21875 c 0,-2.484375 1.328125,-3.828125 3.828125,-3.828125 H 50.75 c 2.484375,0 3.828125,-1.34375 3.828125,-3.828125 v -19.15625 C 54.578125,-100.15625 53.234375,-101.5 50.75,-101.5 H 6.703125 c -2.484375,0 -3.828125,1.34375 -3.828125,3.828125 v 93.84375 C 2.875,-1.34375 4.21875,0 6.703125,0 H 50.75 c 2.484375,0 3.828125,-1.34375 3.828125,-3.828125 z m 0,0"
             id="path12862"
             style="fill:currentColor;fill-opacity:1;stroke-width:2.68707" />
        </g>
        <g
           id="use12581"
           transform="translate(365.66089,185.5977)"
           style="fill:currentColor;fill-opacity:1;stroke-width:2.68707">
          <path
             d="M 25.859375,-141.70312 H 6.703125 c -2.484375,0 -3.828125,1.32812 -3.828125,3.82812 V -3.828125 C 2.875,-1.34375 4.21875,0 6.703125,0 h 19.15625 C 28.34375,0 29.6875,-1.34375 29.6875,-3.828125 v -67.03125 c 0,-2.484375 1.328125,-3.828125 3.828125,-3.828125 H 39.25 c 2.5,0 3.84375,1.34375 3.84375,3.828125 v 67.03125 C 43.09375,-1.34375 44.421875,0 46.921875,0 H 66.0625 c 2.5,0 3.828125,-1.34375 3.828125,-3.828125 v -93.84375 C 69.890625,-100.15625 68.5625,-101.5 66.0625,-101.5 H 33.515625 c -2.5,0 -3.828125,-1.32813 -3.828125,-3.82813 V -137.875 c 0,-2.5 -1.34375,-3.82812 -3.828125,-3.82812 z m 0,0"
             id="path12874"
             style="fill:currentColor;fill-opacity:1;stroke-width:2.68707" />
        </g>
        <g
           id="use12583"
           transform="translate(438.43091,185.5977)"
           style="fill:currentColor;fill-opacity:1;stroke-width:2.68707">
          <path
             d="m 60.328125,-101.5 h -53.625 c -2.484375,0 -3.828125,1.34375 -3.828125,3.828125 v 93.84375 C 2.875,-1.34375 4.21875,0 6.703125,0 h 53.625 C 62.8125,0 64.15625,-1.34375 64.15625,-3.828125 v -19.15625 c 0,-2.484375 -1.34375,-3.828125 -3.828125,-3.828125 H 32.5625 c -2.5,0 -3.84375,-1.34375 -3.84375,-3.828125 v -5.75 c 0,-2.484375 1.34375,-3.828125 3.84375,-3.828125 h 27.765625 c 2.484375,0 3.828125,-1.34375 3.828125,-3.828125 v -53.625 c 0,-2.484375 -1.34375,-3.828125 -3.828125,-3.828125 z m -26.8125,6.703125 c 13.203125,0 23.9375,10.734375 23.9375,23.9375 0,13.21875 -10.734375,23.9375 -23.9375,23.9375 -13.40625,0 -23.9375,-10.53125 -23.9375,-23.9375 0,-13.40625 10.53125,-23.9375 23.9375,-23.9375 z m 0,0"
             id="path12870"
             style="fill:currentColor;fill-opacity:1;stroke-width:2.68707" />
        </g>
        <g
           id="use12585"
           transform="translate(505.4559,185.5977)"
           style="fill:currentColor;fill-opacity:1;stroke-width:2.68707">
          <path
             d="m 2.875,-97.671875 v 93.84375 C 2.875,-1.34375 4.21875,0 6.703125,0 h 19.15625 C 28.34375,0 29.6875,-1.34375 29.6875,-3.828125 v -67.03125 c 0,-2.484375 1.328125,-3.828125 3.828125,-3.828125 H 39.25 c 2.5,0 3.84375,1.34375 3.84375,3.828125 v 67.03125 C 43.09375,-1.34375 44.421875,0 46.921875,0 H 66.0625 c 2.5,0 3.828125,-1.34375 3.828125,-3.828125 v -93.84375 C 69.890625,-100.15625 68.5625,-101.5 66.0625,-101.5 H 6.703125 c -2.484375,0 -3.828125,1.34375 -3.828125,3.828125 z m 0,0"
             id="path12858"
             style="fill:currentColor;fill-opacity:1;stroke-width:2.68707" />
        </g>
      </g>
      <path
         fill-rule="nonzero"
         fill="currentColor"
         fill-opacity="1"
         d="m 257.82812,72.011719 c 7.85547,0 14.22657,-6.371094 14.22657,-14.230469 0,-7.859375 -6.3711,-14.226562 -14.22657,-14.226562 -7.85937,0 -14.23046,6.367187 -14.23046,14.226562 0,7.859375 6.37109,14.230469 14.23046,14.230469"
         id="path12589"
         style="fill:currentColor;fill-opacity:1;stroke-width:4.82454" />
      <path
         fill-rule="nonzero"
         fill="currentColor"
         fill-opacity="1"
         d="m 291.39062,72.011719 c 7.85938,0 14.23047,-6.371094 14.23047,-14.230469 0,-7.859375 -6.37109,-14.226562 -14.23047,-14.226562 -7.85546,0 -14.22656,6.367187 -14.22656,14.226562 0,7.859375 6.3711,14.230469 14.22656,14.230469"
         id="path12591"
         style="fill:currentColor;fill-opacity:1;stroke-width:4.82454" />
    </g>
  </g>
</svg>
